solid CATIA STL
  facet normal  0.000000e+000  1.000000e+000  0.000000e+000
    outer loop
      vertex  8.682409e+000  1.000000e+001  4.924039e+001
      vertex -8.682409e+000  1.000000e+001  4.924039e+001
      vertex -3.061516e-015  1.000000e+001  5.000000e+001
    endloop
  endfacet
  facet normal  0.000000e+000  1.000000e+000  0.000000e+000
    outer loop
      vertex -8.682409e+000  1.000000e+001  4.924039e+001
      vertex  8.682409e+000  1.000000e+001  4.924039e+001
      vertex -1.710101e+001  1.000000e+001  4.698463e+001
    endloop
  endfacet
  facet normal  0.000000e+000  1.000000e+000  0.000000e+000
    outer loop
      vertex -1.710101e+001  1.000000e+001  4.698463e+001
      vertex  8.682409e+000  1.000000e+001  4.924039e+001
      vertex  1.710101e+001  1.000000e+001  4.698463e+001
    endloop
  endfacet
  facet normal  0.000000e+000  1.000000e+000  0.000000e+000
    outer loop
      vertex -1.710101e+001  1.000000e+001  4.698463e+001
      vertex  1.710101e+001  1.000000e+001  4.698463e+001
      vertex -2.500000e+001  1.000000e+001  4.330127e+001
    endloop
  endfacet
  facet normal  0.000000e+000  9.999999e-001  0.000000e+000
    outer loop
      vertex -2.500000e+001  1.000000e+001  4.330127e+001
      vertex  1.710101e+001  1.000000e+001  4.698463e+001
      vertex  2.500000e+001  1.000000e+001  4.330127e+001
    endloop
  endfacet
  facet normal  0.000000e+000  9.999999e-001  0.000000e+000
    outer loop
      vertex -2.500000e+001  1.000000e+001  4.330127e+001
      vertex  2.500000e+001  1.000000e+001  4.330127e+001
      vertex -3.213938e+001  1.000000e+001  3.830222e+001
    endloop
  endfacet
  facet normal  0.000000e+000  1.000000e+000  0.000000e+000
    outer loop
      vertex -3.213938e+001  1.000000e+001  3.830222e+001
      vertex  2.500000e+001  1.000000e+001  4.330127e+001
      vertex  3.213938e+001  1.000000e+001  3.830222e+001
    endloop
  endfacet
  facet normal  0.000000e+000  1.000000e+000  0.000000e+000
    outer loop
      vertex -3.213938e+001  1.000000e+001  3.830222e+001
      vertex  3.213938e+001  1.000000e+001  3.830222e+001
      vertex -3.830222e+001  1.000000e+001  3.213938e+001
    endloop
  endfacet
  facet normal  0.000000e+000  1.000000e+000  0.000000e+000
    outer loop
      vertex -3.830222e+001  1.000000e+001  3.213938e+001
      vertex  3.213938e+001  1.000000e+001  3.830222e+001
      vertex  3.830222e+001  1.000000e+001  3.213938e+001
    endloop
  endfacet
  facet normal  0.000000e+000  1.000000e+000  0.000000e+000
    outer loop
      vertex -3.830222e+001  1.000000e+001  3.213938e+001
      vertex  3.830222e+001  1.000000e+001  3.213938e+001
      vertex -4.330127e+001  1.000000e+001  2.500000e+001
    endloop
  endfacet
  facet normal  0.000000e+000  1.000000e+000  0.000000e+000
    outer loop
      vertex -4.330127e+001  1.000000e+001  2.500000e+001
      vertex  3.830222e+001  1.000000e+001  3.213938e+001
      vertex  4.330127e+001  1.000000e+001  2.500000e+001
    endloop
  endfacet
  facet normal  0.000000e+000  1.000000e+000  0.000000e+000
    outer loop
      vertex -4.330127e+001  1.000000e+001  2.500000e+001
      vertex  4.330127e+001  1.000000e+001  2.500000e+001
      vertex -4.698463e+001  1.000000e+001  1.710101e+001
    endloop
  endfacet
  facet normal  0.000000e+000  1.000000e+000  0.000000e+000
    outer loop
      vertex -4.698463e+001  1.000000e+001  1.710101e+001
      vertex  4.330127e+001  1.000000e+001  2.500000e+001
      vertex  4.698463e+001  1.000000e+001  1.710101e+001
    endloop
  endfacet
  facet normal  0.000000e+000  1.000000e+000  0.000000e+000
    outer loop
      vertex -4.698463e+001  1.000000e+001  1.710101e+001
      vertex  4.698463e+001  1.000000e+001  1.710101e+001
      vertex -4.924039e+001  1.000000e+001  8.682409e+000
    endloop
  endfacet
  facet normal  0.000000e+000  1.000000e+000  0.000000e+000
    outer loop
      vertex -4.924039e+001  1.000000e+001  8.682409e+000
      vertex  4.698463e+001  1.000000e+001  1.710101e+001
      vertex  4.924039e+001  1.000000e+001  8.682409e+000
    endloop
  endfacet
  facet normal  0.000000e+000  1.000000e+000  0.000000e+000
    outer loop
      vertex -4.924039e+001  1.000000e+001  8.682409e+000
      vertex  4.924039e+001  1.000000e+001  8.682409e+000
      vertex -5.000000e+001  1.000000e+001  0.000000e+000
    endloop
  endfacet
  facet normal  0.000000e+000  1.000000e+000  0.000000e+000
    outer loop
      vertex -5.000000e+001  1.000000e+001  0.000000e+000
      vertex  4.924039e+001  1.000000e+001  8.682409e+000
      vertex  5.000000e+001  1.000000e+001  6.123032e-015
    endloop
  endfacet
  facet normal  0.000000e+000  1.000000e+000  0.000000e+000
    outer loop
      vertex -5.000000e+001  1.000000e+001  0.000000e+000
      vertex  5.000000e+001  1.000000e+001  6.123032e-015
      vertex -4.924039e+001  1.000000e+001 -8.682409e+000
    endloop
  endfacet
  facet normal  0.000000e+000  1.000000e+000  0.000000e+000
    outer loop
      vertex -4.924039e+001  1.000000e+001 -8.682409e+000
      vertex  5.000000e+001  1.000000e+001  6.123032e-015
      vertex  4.924039e+001  1.000000e+001 -8.682409e+000
    endloop
  endfacet
  facet normal  0.000000e+000  1.000000e+000  0.000000e+000
    outer loop
      vertex -4.924039e+001  1.000000e+001 -8.682409e+000
      vertex  4.924039e+001  1.000000e+001 -8.682409e+000
      vertex -4.698463e+001  1.000000e+001 -1.710101e+001
    endloop
  endfacet
  facet normal  0.000000e+000  1.000000e+000  0.000000e+000
    outer loop
      vertex -4.698463e+001  1.000000e+001 -1.710101e+001
      vertex  4.924039e+001  1.000000e+001 -8.682409e+000
      vertex  4.698463e+001  1.000000e+001 -1.710101e+001
    endloop
  endfacet
  facet normal  0.000000e+000  1.000000e+000  0.000000e+000
    outer loop
      vertex -4.698463e+001  1.000000e+001 -1.710101e+001
      vertex  4.698463e+001  1.000000e+001 -1.710101e+001
      vertex -4.330127e+001  1.000000e+001 -2.500000e+001
    endloop
  endfacet
  facet normal  0.000000e+000  1.000000e+000  0.000000e+000
    outer loop
      vertex -4.330127e+001  1.000000e+001 -2.500000e+001
      vertex  4.698463e+001  1.000000e+001 -1.710101e+001
      vertex  4.330127e+001  1.000000e+001 -2.500000e+001
    endloop
  endfacet
  facet normal  0.000000e+000  1.000000e+000  0.000000e+000
    outer loop
      vertex -4.330127e+001  1.000000e+001 -2.500000e+001
      vertex  4.330127e+001  1.000000e+001 -2.500000e+001
      vertex -3.830222e+001  1.000000e+001 -3.213938e+001
    endloop
  endfacet
  facet normal  0.000000e+000  1.000000e+000  0.000000e+000
    outer loop
      vertex -3.830222e+001  1.000000e+001 -3.213938e+001
      vertex  4.330127e+001  1.000000e+001 -2.500000e+001
      vertex  3.830222e+001  1.000000e+001 -3.213938e+001
    endloop
  endfacet
  facet normal  0.000000e+000  1.000000e+000  0.000000e+000
    outer loop
      vertex -3.830222e+001  1.000000e+001 -3.213938e+001
      vertex  3.830222e+001  1.000000e+001 -3.213938e+001
      vertex -3.213938e+001  1.000000e+001 -3.830222e+001
    endloop
  endfacet
  facet normal  0.000000e+000  1.000000e+000  0.000000e+000
    outer loop
      vertex -3.213938e+001  1.000000e+001 -3.830222e+001
      vertex  3.830222e+001  1.000000e+001 -3.213938e+001
      vertex  3.213938e+001  1.000000e+001 -3.830222e+001
    endloop
  endfacet
  facet normal  0.000000e+000  1.000000e+000  0.000000e+000
    outer loop
      vertex -3.213938e+001  1.000000e+001 -3.830222e+001
      vertex  3.213938e+001  1.000000e+001 -3.830222e+001
      vertex -2.500000e+001  1.000000e+001 -4.330127e+001
    endloop
  endfacet
  facet normal  0.000000e+000  9.999999e-001  0.000000e+000
    outer loop
      vertex -2.500000e+001  1.000000e+001 -4.330127e+001
      vertex  3.213938e+001  1.000000e+001 -3.830222e+001
      vertex  2.500000e+001  1.000000e+001 -4.330127e+001
    endloop
  endfacet
  facet normal  0.000000e+000  9.999999e-001  0.000000e+000
    outer loop
      vertex -2.500000e+001  1.000000e+001 -4.330127e+001
      vertex  2.500000e+001  1.000000e+001 -4.330127e+001
      vertex -1.710101e+001  1.000000e+001 -4.698463e+001
    endloop
  endfacet
  facet normal  0.000000e+000  1.000000e+000  0.000000e+000
    outer loop
      vertex -1.710101e+001  1.000000e+001 -4.698463e+001
      vertex  2.500000e+001  1.000000e+001 -4.330127e+001
      vertex  1.710101e+001  1.000000e+001 -4.698463e+001
    endloop
  endfacet
  facet normal  0.000000e+000  1.000000e+000  0.000000e+000
    outer loop
      vertex -1.710101e+001  1.000000e+001 -4.698463e+001
      vertex  1.710101e+001  1.000000e+001 -4.698463e+001
      vertex -8.682409e+000  1.000000e+001 -4.924039e+001
    endloop
  endfacet
  facet normal  0.000000e+000  1.000000e+000  0.000000e+000
    outer loop
      vertex -8.682409e+000  1.000000e+001 -4.924039e+001
      vertex  1.710101e+001  1.000000e+001 -4.698463e+001
      vertex  8.682409e+000  1.000000e+001 -4.924039e+001
    endloop
  endfacet
  facet normal  0.000000e+000  1.000000e+000  0.000000e+000
    outer loop
      vertex -8.682409e+000  1.000000e+001 -4.924039e+001
      vertex  8.682409e+000  1.000000e+001 -4.924039e+001
      vertex  9.184548e-015  1.000000e+001 -5.000000e+001
    endloop
  endfacet
  facet normal  0.000000e+000 -1.000000e+000  0.000000e+000
    outer loop
      vertex -3.061516e-015  0.000000e+000  5.000000e+001
      vertex -8.682409e+000  0.000000e+000  4.924039e+001
      vertex  8.682409e+000  0.000000e+000  4.924039e+001
    endloop
  endfacet
  facet normal  0.000000e+000 -1.000000e+000  0.000000e+000
    outer loop
      vertex  8.682409e+000  0.000000e+000  4.924039e+001
      vertex -8.682409e+000  0.000000e+000  4.924039e+001
      vertex  1.710101e+001  0.000000e+000  4.698463e+001
    endloop
  endfacet
  facet normal  0.000000e+000 -1.000000e+000  0.000000e+000
    outer loop
      vertex  1.710101e+001  0.000000e+000  4.698463e+001
      vertex -8.682409e+000  0.000000e+000  4.924039e+001
      vertex -1.710101e+001  0.000000e+000  4.698463e+001
    endloop
  endfacet
  facet normal  0.000000e+000 -1.000000e+000  0.000000e+000
    outer loop
      vertex  1.710101e+001  0.000000e+000  4.698463e+001
      vertex -1.710101e+001  0.000000e+000  4.698463e+001
      vertex  2.500000e+001  0.000000e+000  4.330127e+001
    endloop
  endfacet
  facet normal  0.000000e+000 -9.999999e-001  0.000000e+000
    outer loop
      vertex  2.500000e+001  0.000000e+000  4.330127e+001
      vertex -1.710101e+001  0.000000e+000  4.698463e+001
      vertex -2.500000e+001  0.000000e+000  4.330127e+001
    endloop
  endfacet
  facet normal  0.000000e+000 -9.999999e-001  0.000000e+000
    outer loop
      vertex  2.500000e+001  0.000000e+000  4.330127e+001
      vertex -2.500000e+001  0.000000e+000  4.330127e+001
      vertex  3.213938e+001  0.000000e+000  3.830222e+001
    endloop
  endfacet
  facet normal  0.000000e+000 -1.000000e+000  0.000000e+000
    outer loop
      vertex  3.213938e+001  0.000000e+000  3.830222e+001
      vertex -2.500000e+001  0.000000e+000  4.330127e+001
      vertex -3.213938e+001  0.000000e+000  3.830222e+001
    endloop
  endfacet
  facet normal  0.000000e+000 -1.000000e+000  0.000000e+000
    outer loop
      vertex  3.213938e+001  0.000000e+000  3.830222e+001
      vertex -3.213938e+001  0.000000e+000  3.830222e+001
      vertex  3.830222e+001  0.000000e+000  3.213938e+001
    endloop
  endfacet
  facet normal  0.000000e+000 -1.000000e+000  0.000000e+000
    outer loop
      vertex  3.830222e+001  0.000000e+000  3.213938e+001
      vertex -3.213938e+001  0.000000e+000  3.830222e+001
      vertex -3.830222e+001  0.000000e+000  3.213938e+001
    endloop
  endfacet
  facet normal  0.000000e+000 -1.000000e+000  0.000000e+000
    outer loop
      vertex  3.830222e+001  0.000000e+000  3.213938e+001
      vertex -3.830222e+001  0.000000e+000  3.213938e+001
      vertex  4.330127e+001  0.000000e+000  2.500000e+001
    endloop
  endfacet
  facet normal  0.000000e+000 -1.000000e+000  0.000000e+000
    outer loop
      vertex  4.330127e+001  0.000000e+000  2.500000e+001
      vertex -3.830222e+001  0.000000e+000  3.213938e+001
      vertex -4.330127e+001  0.000000e+000  2.500000e+001
    endloop
  endfacet
  facet normal  0.000000e+000 -1.000000e+000  0.000000e+000
    outer loop
      vertex  4.330127e+001  0.000000e+000  2.500000e+001
      vertex -4.330127e+001  0.000000e+000  2.500000e+001
      vertex  4.698463e+001  0.000000e+000  1.710101e+001
    endloop
  endfacet
  facet normal  0.000000e+000 -1.000000e+000  0.000000e+000
    outer loop
      vertex  4.698463e+001  0.000000e+000  1.710101e+001
      vertex -4.330127e+001  0.000000e+000  2.500000e+001
      vertex -4.698463e+001  0.000000e+000  1.710101e+001
    endloop
  endfacet
  facet normal  0.000000e+000 -1.000000e+000  0.000000e+000
    outer loop
      vertex  4.698463e+001  0.000000e+000  1.710101e+001
      vertex -4.698463e+001  0.000000e+000  1.710101e+001
      vertex  4.924039e+001  0.000000e+000  8.682409e+000
    endloop
  endfacet
  facet normal  0.000000e+000 -1.000000e+000  0.000000e+000
    outer loop
      vertex  4.924039e+001  0.000000e+000  8.682409e+000
      vertex -4.698463e+001  0.000000e+000  1.710101e+001
      vertex -4.924039e+001  0.000000e+000  8.682409e+000
    endloop
  endfacet
  facet normal  0.000000e+000 -1.000000e+000  0.000000e+000
    outer loop
      vertex  4.924039e+001  0.000000e+000  8.682409e+000
      vertex -4.924039e+001  0.000000e+000  8.682409e+000
      vertex  5.000000e+001  0.000000e+000  6.123032e-015
    endloop
  endfacet
  facet normal  -0.000000e+000 -1.000000e+000  0.000000e+000
    outer loop
      vertex  5.000000e+001  0.000000e+000  6.123032e-015
      vertex -4.924039e+001  0.000000e+000  8.682409e+000
      vertex -5.000000e+001  0.000000e+000  0.000000e+000
    endloop
  endfacet
  facet normal  0.000000e+000 -1.000000e+000  0.000000e+000
    outer loop
      vertex  5.000000e+001  0.000000e+000  6.123032e-015
      vertex -5.000000e+001  0.000000e+000  0.000000e+000
      vertex  4.924039e+001  0.000000e+000 -8.682409e+000
    endloop
  endfacet
  facet normal  0.000000e+000 -1.000000e+000  0.000000e+000
    outer loop
      vertex  4.924039e+001  0.000000e+000 -8.682409e+000
      vertex -5.000000e+001  0.000000e+000  0.000000e+000
      vertex -4.924039e+001  0.000000e+000 -8.682409e+000
    endloop
  endfacet
  facet normal  0.000000e+000 -1.000000e+000  0.000000e+000
    outer loop
      vertex  4.924039e+001  0.000000e+000 -8.682409e+000
      vertex -4.924039e+001  0.000000e+000 -8.682409e+000
      vertex  4.698463e+001  0.000000e+000 -1.710101e+001
    endloop
  endfacet
  facet normal  0.000000e+000 -1.000000e+000  0.000000e+000
    outer loop
      vertex  4.698463e+001  0.000000e+000 -1.710101e+001
      vertex -4.924039e+001  0.000000e+000 -8.682409e+000
      vertex -4.698463e+001  0.000000e+000 -1.710101e+001
    endloop
  endfacet
  facet normal  0.000000e+000 -1.000000e+000  0.000000e+000
    outer loop
      vertex  4.698463e+001  0.000000e+000 -1.710101e+001
      vertex -4.698463e+001  0.000000e+000 -1.710101e+001
      vertex  4.330127e+001  0.000000e+000 -2.500000e+001
    endloop
  endfacet
  facet normal  0.000000e+000 -1.000000e+000  0.000000e+000
    outer loop
      vertex  4.330127e+001  0.000000e+000 -2.500000e+001
      vertex -4.698463e+001  0.000000e+000 -1.710101e+001
      vertex -4.330127e+001  0.000000e+000 -2.500000e+001
    endloop
  endfacet
  facet normal  0.000000e+000 -1.000000e+000  0.000000e+000
    outer loop
      vertex  4.330127e+001  0.000000e+000 -2.500000e+001
      vertex -4.330127e+001  0.000000e+000 -2.500000e+001
      vertex  3.830222e+001  0.000000e+000 -3.213938e+001
    endloop
  endfacet
  facet normal  0.000000e+000 -1.000000e+000  0.000000e+000
    outer loop
      vertex  3.830222e+001  0.000000e+000 -3.213938e+001
      vertex -4.330127e+001  0.000000e+000 -2.500000e+001
      vertex -3.830222e+001  0.000000e+000 -3.213938e+001
    endloop
  endfacet
  facet normal  0.000000e+000 -1.000000e+000  0.000000e+000
    outer loop
      vertex  3.830222e+001  0.000000e+000 -3.213938e+001
      vertex -3.830222e+001  0.000000e+000 -3.213938e+001
      vertex  3.213938e+001  0.000000e+000 -3.830222e+001
    endloop
  endfacet
  facet normal  0.000000e+000 -1.000000e+000  0.000000e+000
    outer loop
      vertex  3.213938e+001  0.000000e+000 -3.830222e+001
      vertex -3.830222e+001  0.000000e+000 -3.213938e+001
      vertex -3.213938e+001  0.000000e+000 -3.830222e+001
    endloop
  endfacet
  facet normal  0.000000e+000 -1.000000e+000  0.000000e+000
    outer loop
      vertex  3.213938e+001  0.000000e+000 -3.830222e+001
      vertex -3.213938e+001  0.000000e+000 -3.830222e+001
      vertex  2.500000e+001  0.000000e+000 -4.330127e+001
    endloop
  endfacet
  facet normal  0.000000e+000 -9.999999e-001  0.000000e+000
    outer loop
      vertex  2.500000e+001  0.000000e+000 -4.330127e+001
      vertex -3.213938e+001  0.000000e+000 -3.830222e+001
      vertex -2.500000e+001  0.000000e+000 -4.330127e+001
    endloop
  endfacet
  facet normal  0.000000e+000 -9.999999e-001  0.000000e+000
    outer loop
      vertex  2.500000e+001  0.000000e+000 -4.330127e+001
      vertex -2.500000e+001  0.000000e+000 -4.330127e+001
      vertex  1.710101e+001  0.000000e+000 -4.698463e+001
    endloop
  endfacet
  facet normal  0.000000e+000 -1.000000e+000  0.000000e+000
    outer loop
      vertex  1.710101e+001  0.000000e+000 -4.698463e+001
      vertex -2.500000e+001  0.000000e+000 -4.330127e+001
      vertex -1.710101e+001  0.000000e+000 -4.698463e+001
    endloop
  endfacet
  facet normal  0.000000e+000 -1.000000e+000  0.000000e+000
    outer loop
      vertex  1.710101e+001  0.000000e+000 -4.698463e+001
      vertex -1.710101e+001  0.000000e+000 -4.698463e+001
      vertex  8.682409e+000  0.000000e+000 -4.924039e+001
    endloop
  endfacet
  facet normal  0.000000e+000 -1.000000e+000  0.000000e+000
    outer loop
      vertex  8.682409e+000  0.000000e+000 -4.924039e+001
      vertex -1.710101e+001  0.000000e+000 -4.698463e+001
      vertex -8.682409e+000  0.000000e+000 -4.924039e+001
    endloop
  endfacet
  facet normal  0.000000e+000 -1.000000e+000  0.000000e+000
    outer loop
      vertex  8.682409e+000  0.000000e+000 -4.924039e+001
      vertex -8.682409e+000  0.000000e+000 -4.924039e+001
      vertex  9.184548e-015  0.000000e+000 -5.000000e+001
    endloop
  endfacet
  facet normal -9.961947e-001  -0.000000e+000 -8.715581e-002
    outer loop
      vertex -5.000000e+001  0.000000e+000  0.000000e+000
      vertex -5.000000e+001  1.000000e+001  0.000000e+000
      vertex -4.924039e+001  0.000000e+000 -8.682409e+000
    endloop
  endfacet
  facet normal -9.961947e-001  0.000000e+000 -8.715581e-002
    outer loop
      vertex -4.924039e+001  0.000000e+000 -8.682409e+000
      vertex -5.000000e+001  1.000000e+001  0.000000e+000
      vertex -4.924039e+001  1.000000e+001 -8.682409e+000
    endloop
  endfacet
  facet normal -9.659258e-001  -0.000000e+000 -2.588190e-001
    outer loop
      vertex -4.924039e+001  0.000000e+000 -8.682409e+000
      vertex -4.924039e+001  1.000000e+001 -8.682409e+000
      vertex -4.698463e+001  0.000000e+000 -1.710101e+001
    endloop
  endfacet
  facet normal -9.659258e-001  0.000000e+000 -2.588190e-001
    outer loop
      vertex -4.698463e+001  0.000000e+000 -1.710101e+001
      vertex -4.924039e+001  1.000000e+001 -8.682409e+000
      vertex -4.698463e+001  1.000000e+001 -1.710101e+001
    endloop
  endfacet
  facet normal -9.063078e-001  -0.000000e+000 -4.226183e-001
    outer loop
      vertex -4.698463e+001  0.000000e+000 -1.710101e+001
      vertex -4.698463e+001  1.000000e+001 -1.710101e+001
      vertex -4.330127e+001  0.000000e+000 -2.500000e+001
    endloop
  endfacet
  facet normal -9.063078e-001  0.000000e+000 -4.226183e-001
    outer loop
      vertex -4.330127e+001  0.000000e+000 -2.500000e+001
      vertex -4.698463e+001  1.000000e+001 -1.710101e+001
      vertex -4.330127e+001  1.000000e+001 -2.500000e+001
    endloop
  endfacet
  facet normal -8.191522e-001  -0.000000e+000 -5.735763e-001
    outer loop
      vertex -4.330127e+001  0.000000e+000 -2.500000e+001
      vertex -4.330127e+001  1.000000e+001 -2.500000e+001
      vertex -3.830222e+001  0.000000e+000 -3.213938e+001
    endloop
  endfacet
  facet normal -8.191522e-001  0.000000e+000 -5.735763e-001
    outer loop
      vertex -3.830222e+001  0.000000e+000 -3.213938e+001
      vertex -4.330127e+001  1.000000e+001 -2.500000e+001
      vertex -3.830222e+001  1.000000e+001 -3.213938e+001
    endloop
  endfacet
  facet normal -7.071068e-001  -0.000000e+000 -7.071068e-001
    outer loop
      vertex -3.830222e+001  0.000000e+000 -3.213938e+001
      vertex -3.830222e+001  1.000000e+001 -3.213938e+001
      vertex -3.213938e+001  0.000000e+000 -3.830222e+001
    endloop
  endfacet
  facet normal -7.071068e-001  0.000000e+000 -7.071068e-001
    outer loop
      vertex -3.213938e+001  0.000000e+000 -3.830222e+001
      vertex -3.830222e+001  1.000000e+001 -3.213938e+001
      vertex -3.213938e+001  1.000000e+001 -3.830222e+001
    endloop
  endfacet
  facet normal -5.735763e-001  -0.000000e+000 -8.191522e-001
    outer loop
      vertex -3.213938e+001  0.000000e+000 -3.830222e+001
      vertex -3.213938e+001  1.000000e+001 -3.830222e+001
      vertex -2.500000e+001  0.000000e+000 -4.330127e+001
    endloop
  endfacet
  facet normal -5.735763e-001  0.000000e+000 -8.191522e-001
    outer loop
      vertex -2.500000e+001  0.000000e+000 -4.330127e+001
      vertex -3.213938e+001  1.000000e+001 -3.830222e+001
      vertex -2.500000e+001  1.000000e+001 -4.330127e+001
    endloop
  endfacet
  facet normal -4.226183e-001  -0.000000e+000 -9.063078e-001
    outer loop
      vertex -2.500000e+001  0.000000e+000 -4.330127e+001
      vertex -2.500000e+001  1.000000e+001 -4.330127e+001
      vertex -1.710101e+001  0.000000e+000 -4.698463e+001
    endloop
  endfacet
  facet normal -4.226183e-001  0.000000e+000 -9.063078e-001
    outer loop
      vertex -1.710101e+001  0.000000e+000 -4.698463e+001
      vertex -2.500000e+001  1.000000e+001 -4.330127e+001
      vertex -1.710101e+001  1.000000e+001 -4.698463e+001
    endloop
  endfacet
  facet normal -2.588190e-001  -0.000000e+000 -9.659258e-001
    outer loop
      vertex -1.710101e+001  0.000000e+000 -4.698463e+001
      vertex -1.710101e+001  1.000000e+001 -4.698463e+001
      vertex -8.682409e+000  0.000000e+000 -4.924039e+001
    endloop
  endfacet
  facet normal -2.588190e-001  0.000000e+000 -9.659258e-001
    outer loop
      vertex -8.682409e+000  0.000000e+000 -4.924039e+001
      vertex -1.710101e+001  1.000000e+001 -4.698463e+001
      vertex -8.682409e+000  1.000000e+001 -4.924039e+001
    endloop
  endfacet
  facet normal -8.715581e-002  -0.000000e+000 -9.961947e-001
    outer loop
      vertex -8.682409e+000  0.000000e+000 -4.924039e+001
      vertex -8.682409e+000  1.000000e+001 -4.924039e+001
      vertex  9.184548e-015  0.000000e+000 -5.000000e+001
    endloop
  endfacet
  facet normal -8.715581e-002  0.000000e+000 -9.961947e-001
    outer loop
      vertex  9.184548e-015  0.000000e+000 -5.000000e+001
      vertex -8.682409e+000  1.000000e+001 -4.924039e+001
      vertex  9.184548e-015  1.000000e+001 -5.000000e+001
    endloop
  endfacet
  facet normal  8.715581e-002  0.000000e+000 -9.961947e-001
    outer loop
      vertex  9.184548e-015  0.000000e+000 -5.000000e+001
      vertex  9.184548e-015  1.000000e+001 -5.000000e+001
      vertex  8.682409e+000  0.000000e+000 -4.924039e+001
    endloop
  endfacet
  facet normal  8.715581e-002  0.000000e+000 -9.961947e-001
    outer loop
      vertex  8.682409e+000  0.000000e+000 -4.924039e+001
      vertex  9.184548e-015  1.000000e+001 -5.000000e+001
      vertex  8.682409e+000  1.000000e+001 -4.924039e+001
    endloop
  endfacet
  facet normal  2.588190e-001  0.000000e+000 -9.659258e-001
    outer loop
      vertex  8.682409e+000  0.000000e+000 -4.924039e+001
      vertex  8.682409e+000  1.000000e+001 -4.924039e+001
      vertex  1.710101e+001  0.000000e+000 -4.698463e+001
    endloop
  endfacet
  facet normal  2.588190e-001  0.000000e+000 -9.659258e-001
    outer loop
      vertex  1.710101e+001  0.000000e+000 -4.698463e+001
      vertex  8.682409e+000  1.000000e+001 -4.924039e+001
      vertex  1.710101e+001  1.000000e+001 -4.698463e+001
    endloop
  endfacet
  facet normal  4.226183e-001  0.000000e+000 -9.063078e-001
    outer loop
      vertex  1.710101e+001  0.000000e+000 -4.698463e+001
      vertex  1.710101e+001  1.000000e+001 -4.698463e+001
      vertex  2.500000e+001  0.000000e+000 -4.330127e+001
    endloop
  endfacet
  facet normal  4.226183e-001  0.000000e+000 -9.063078e-001
    outer loop
      vertex  2.500000e+001  0.000000e+000 -4.330127e+001
      vertex  1.710101e+001  1.000000e+001 -4.698463e+001
      vertex  2.500000e+001  1.000000e+001 -4.330127e+001
    endloop
  endfacet
  facet normal  5.735763e-001  0.000000e+000 -8.191522e-001
    outer loop
      vertex  2.500000e+001  0.000000e+000 -4.330127e+001
      vertex  2.500000e+001  1.000000e+001 -4.330127e+001
      vertex  3.213938e+001  0.000000e+000 -3.830222e+001
    endloop
  endfacet
  facet normal  5.735763e-001  0.000000e+000 -8.191522e-001
    outer loop
      vertex  3.213938e+001  0.000000e+000 -3.830222e+001
      vertex  2.500000e+001  1.000000e+001 -4.330127e+001
      vertex  3.213938e+001  1.000000e+001 -3.830222e+001
    endloop
  endfacet
  facet normal  7.071068e-001  0.000000e+000 -7.071068e-001
    outer loop
      vertex  3.213938e+001  0.000000e+000 -3.830222e+001
      vertex  3.213938e+001  1.000000e+001 -3.830222e+001
      vertex  3.830222e+001  0.000000e+000 -3.213938e+001
    endloop
  endfacet
  facet normal  7.071068e-001  0.000000e+000 -7.071068e-001
    outer loop
      vertex  3.830222e+001  0.000000e+000 -3.213938e+001
      vertex  3.213938e+001  1.000000e+001 -3.830222e+001
      vertex  3.830222e+001  1.000000e+001 -3.213938e+001
    endloop
  endfacet
  facet normal  8.191522e-001  0.000000e+000 -5.735763e-001
    outer loop
      vertex  3.830222e+001  0.000000e+000 -3.213938e+001
      vertex  3.830222e+001  1.000000e+001 -3.213938e+001
      vertex  4.330127e+001  0.000000e+000 -2.500000e+001
    endloop
  endfacet
  facet normal  8.191522e-001  0.000000e+000 -5.735763e-001
    outer loop
      vertex  4.330127e+001  0.000000e+000 -2.500000e+001
      vertex  3.830222e+001  1.000000e+001 -3.213938e+001
      vertex  4.330127e+001  1.000000e+001 -2.500000e+001
    endloop
  endfacet
  facet normal  9.063078e-001  0.000000e+000 -4.226183e-001
    outer loop
      vertex  4.330127e+001  0.000000e+000 -2.500000e+001
      vertex  4.330127e+001  1.000000e+001 -2.500000e+001
      vertex  4.698463e+001  0.000000e+000 -1.710101e+001
    endloop
  endfacet
  facet normal  9.063078e-001  0.000000e+000 -4.226183e-001
    outer loop
      vertex  4.698463e+001  0.000000e+000 -1.710101e+001
      vertex  4.330127e+001  1.000000e+001 -2.500000e+001
      vertex  4.698463e+001  1.000000e+001 -1.710101e+001
    endloop
  endfacet
  facet normal  9.659258e-001  0.000000e+000 -2.588190e-001
    outer loop
      vertex  4.698463e+001  0.000000e+000 -1.710101e+001
      vertex  4.698463e+001  1.000000e+001 -1.710101e+001
      vertex  4.924039e+001  0.000000e+000 -8.682409e+000
    endloop
  endfacet
  facet normal  9.659258e-001  0.000000e+000 -2.588190e-001
    outer loop
      vertex  4.924039e+001  0.000000e+000 -8.682409e+000
      vertex  4.698463e+001  1.000000e+001 -1.710101e+001
      vertex  4.924039e+001  1.000000e+001 -8.682409e+000
    endloop
  endfacet
  facet normal  9.961947e-001  0.000000e+000 -8.715581e-002
    outer loop
      vertex  4.924039e+001  0.000000e+000 -8.682409e+000
      vertex  4.924039e+001  1.000000e+001 -8.682409e+000
      vertex  5.000000e+001  0.000000e+000  6.123032e-015
    endloop
  endfacet
  facet normal  9.961947e-001  0.000000e+000 -8.715581e-002
    outer loop
      vertex  5.000000e+001  0.000000e+000  6.123032e-015
      vertex  4.924039e+001  1.000000e+001 -8.682409e+000
      vertex  5.000000e+001  1.000000e+001  6.123032e-015
    endloop
  endfacet
  facet normal  9.961947e-001  0.000000e+000  8.715581e-002
    outer loop
      vertex  5.000000e+001  0.000000e+000  6.123032e-015
      vertex  5.000000e+001  1.000000e+001  6.123032e-015
      vertex  4.924039e+001  0.000000e+000  8.682409e+000
    endloop
  endfacet
  facet normal  9.961947e-001  -0.000000e+000  8.715581e-002
    outer loop
      vertex  4.924039e+001  0.000000e+000  8.682409e+000
      vertex  5.000000e+001  1.000000e+001  6.123032e-015
      vertex  4.924039e+001  1.000000e+001  8.682409e+000
    endloop
  endfacet
  facet normal  9.659258e-001  0.000000e+000  2.588190e-001
    outer loop
      vertex  4.924039e+001  0.000000e+000  8.682409e+000
      vertex  4.924039e+001  1.000000e+001  8.682409e+000
      vertex  4.698463e+001  0.000000e+000  1.710101e+001
    endloop
  endfacet
  facet normal  9.659258e-001  -0.000000e+000  2.588190e-001
    outer loop
      vertex  4.698463e+001  0.000000e+000  1.710101e+001
      vertex  4.924039e+001  1.000000e+001  8.682409e+000
      vertex  4.698463e+001  1.000000e+001  1.710101e+001
    endloop
  endfacet
  facet normal  9.063078e-001  0.000000e+000  4.226183e-001
    outer loop
      vertex  4.698463e+001  0.000000e+000  1.710101e+001
      vertex  4.698463e+001  1.000000e+001  1.710101e+001
      vertex  4.330127e+001  0.000000e+000  2.500000e+001
    endloop
  endfacet
  facet normal  9.063078e-001  -0.000000e+000  4.226183e-001
    outer loop
      vertex  4.330127e+001  0.000000e+000  2.500000e+001
      vertex  4.698463e+001  1.000000e+001  1.710101e+001
      vertex  4.330127e+001  1.000000e+001  2.500000e+001
    endloop
  endfacet
  facet normal  8.191522e-001  0.000000e+000  5.735763e-001
    outer loop
      vertex  4.330127e+001  0.000000e+000  2.500000e+001
      vertex  4.330127e+001  1.000000e+001  2.500000e+001
      vertex  3.830222e+001  0.000000e+000  3.213938e+001
    endloop
  endfacet
  facet normal  8.191522e-001  -0.000000e+000  5.735763e-001
    outer loop
      vertex  3.830222e+001  0.000000e+000  3.213938e+001
      vertex  4.330127e+001  1.000000e+001  2.500000e+001
      vertex  3.830222e+001  1.000000e+001  3.213938e+001
    endloop
  endfacet
  facet normal  7.071068e-001  0.000000e+000  7.071068e-001
    outer loop
      vertex  3.830222e+001  0.000000e+000  3.213938e+001
      vertex  3.830222e+001  1.000000e+001  3.213938e+001
      vertex  3.213938e+001  0.000000e+000  3.830222e+001
    endloop
  endfacet
  facet normal  7.071068e-001  -0.000000e+000  7.071068e-001
    outer loop
      vertex  3.213938e+001  0.000000e+000  3.830222e+001
      vertex  3.830222e+001  1.000000e+001  3.213938e+001
      vertex  3.213938e+001  1.000000e+001  3.830222e+001
    endloop
  endfacet
  facet normal  5.735763e-001  0.000000e+000  8.191522e-001
    outer loop
      vertex  3.213938e+001  0.000000e+000  3.830222e+001
      vertex  3.213938e+001  1.000000e+001  3.830222e+001
      vertex  2.500000e+001  0.000000e+000  4.330127e+001
    endloop
  endfacet
  facet normal  5.735763e-001  -0.000000e+000  8.191522e-001
    outer loop
      vertex  2.500000e+001  0.000000e+000  4.330127e+001
      vertex  3.213938e+001  1.000000e+001  3.830222e+001
      vertex  2.500000e+001  1.000000e+001  4.330127e+001
    endloop
  endfacet
  facet normal  4.226183e-001  0.000000e+000  9.063078e-001
    outer loop
      vertex  2.500000e+001  0.000000e+000  4.330127e+001
      vertex  2.500000e+001  1.000000e+001  4.330127e+001
      vertex  1.710101e+001  0.000000e+000  4.698463e+001
    endloop
  endfacet
  facet normal  4.226183e-001  -0.000000e+000  9.063078e-001
    outer loop
      vertex  1.710101e+001  0.000000e+000  4.698463e+001
      vertex  2.500000e+001  1.000000e+001  4.330127e+001
      vertex  1.710101e+001  1.000000e+001  4.698463e+001
    endloop
  endfacet
  facet normal  2.588190e-001  0.000000e+000  9.659258e-001
    outer loop
      vertex  1.710101e+001  0.000000e+000  4.698463e+001
      vertex  1.710101e+001  1.000000e+001  4.698463e+001
      vertex  8.682409e+000  0.000000e+000  4.924039e+001
    endloop
  endfacet
  facet normal  2.588190e-001  -0.000000e+000  9.659258e-001
    outer loop
      vertex  8.682409e+000  0.000000e+000  4.924039e+001
      vertex  1.710101e+001  1.000000e+001  4.698463e+001
      vertex  8.682409e+000  1.000000e+001  4.924039e+001
    endloop
  endfacet
  facet normal  8.715581e-002  0.000000e+000  9.961947e-001
    outer loop
      vertex  8.682409e+000  0.000000e+000  4.924039e+001
      vertex  8.682409e+000  1.000000e+001  4.924039e+001
      vertex -3.061516e-015  0.000000e+000  5.000000e+001
    endloop
  endfacet
  facet normal  8.715581e-002  -0.000000e+000  9.961947e-001
    outer loop
      vertex -3.061516e-015  0.000000e+000  5.000000e+001
      vertex  8.682409e+000  1.000000e+001  4.924039e+001
      vertex -3.061516e-015  1.000000e+001  5.000000e+001
    endloop
  endfacet
  facet normal -8.715581e-002  0.000000e+000  9.961947e-001
    outer loop
      vertex -3.061516e-015  0.000000e+000  5.000000e+001
      vertex -3.061516e-015  1.000000e+001  5.000000e+001
      vertex -8.682409e+000  0.000000e+000  4.924039e+001
    endloop
  endfacet
  facet normal -8.715581e-002  0.000000e+000  9.961947e-001
    outer loop
      vertex -8.682409e+000  0.000000e+000  4.924039e+001
      vertex -3.061516e-015  1.000000e+001  5.000000e+001
      vertex -8.682409e+000  1.000000e+001  4.924039e+001
    endloop
  endfacet
  facet normal -2.588190e-001  0.000000e+000  9.659258e-001
    outer loop
      vertex -8.682409e+000  0.000000e+000  4.924039e+001
      vertex -8.682409e+000  1.000000e+001  4.924039e+001
      vertex -1.710101e+001  0.000000e+000  4.698463e+001
    endloop
  endfacet
  facet normal -2.588190e-001  0.000000e+000  9.659258e-001
    outer loop
      vertex -1.710101e+001  0.000000e+000  4.698463e+001
      vertex -8.682409e+000  1.000000e+001  4.924039e+001
      vertex -1.710101e+001  1.000000e+001  4.698463e+001
    endloop
  endfacet
  facet normal -4.226183e-001  0.000000e+000  9.063078e-001
    outer loop
      vertex -1.710101e+001  0.000000e+000  4.698463e+001
      vertex -1.710101e+001  1.000000e+001  4.698463e+001
      vertex -2.500000e+001  0.000000e+000  4.330127e+001
    endloop
  endfacet
  facet normal -4.226183e-001  0.000000e+000  9.063078e-001
    outer loop
      vertex -2.500000e+001  0.000000e+000  4.330127e+001
      vertex -1.710101e+001  1.000000e+001  4.698463e+001
      vertex -2.500000e+001  1.000000e+001  4.330127e+001
    endloop
  endfacet
  facet normal -5.735763e-001  0.000000e+000  8.191522e-001
    outer loop
      vertex -2.500000e+001  0.000000e+000  4.330127e+001
      vertex -2.500000e+001  1.000000e+001  4.330127e+001
      vertex -3.213938e+001  0.000000e+000  3.830222e+001
    endloop
  endfacet
  facet normal -5.735763e-001  0.000000e+000  8.191522e-001
    outer loop
      vertex -3.213938e+001  0.000000e+000  3.830222e+001
      vertex -2.500000e+001  1.000000e+001  4.330127e+001
      vertex -3.213938e+001  1.000000e+001  3.830222e+001
    endloop
  endfacet
  facet normal -7.071068e-001  0.000000e+000  7.071068e-001
    outer loop
      vertex -3.213938e+001  0.000000e+000  3.830222e+001
      vertex -3.213938e+001  1.000000e+001  3.830222e+001
      vertex -3.830222e+001  0.000000e+000  3.213938e+001
    endloop
  endfacet
  facet normal -7.071068e-001  0.000000e+000  7.071068e-001
    outer loop
      vertex -3.830222e+001  0.000000e+000  3.213938e+001
      vertex -3.213938e+001  1.000000e+001  3.830222e+001
      vertex -3.830222e+001  1.000000e+001  3.213938e+001
    endloop
  endfacet
  facet normal -8.191522e-001  0.000000e+000  5.735763e-001
    outer loop
      vertex -3.830222e+001  0.000000e+000  3.213938e+001
      vertex -3.830222e+001  1.000000e+001  3.213938e+001
      vertex -4.330127e+001  0.000000e+000  2.500000e+001
    endloop
  endfacet
  facet normal -8.191522e-001  0.000000e+000  5.735763e-001
    outer loop
      vertex -4.330127e+001  0.000000e+000  2.500000e+001
      vertex -3.830222e+001  1.000000e+001  3.213938e+001
      vertex -4.330127e+001  1.000000e+001  2.500000e+001
    endloop
  endfacet
  facet normal -9.063078e-001  0.000000e+000  4.226183e-001
    outer loop
      vertex -4.330127e+001  0.000000e+000  2.500000e+001
      vertex -4.330127e+001  1.000000e+001  2.500000e+001
      vertex -4.698463e+001  0.000000e+000  1.710101e+001
    endloop
  endfacet
  facet normal -9.063078e-001  0.000000e+000  4.226183e-001
    outer loop
      vertex -4.698463e+001  0.000000e+000  1.710101e+001
      vertex -4.330127e+001  1.000000e+001  2.500000e+001
      vertex -4.698463e+001  1.000000e+001  1.710101e+001
    endloop
  endfacet
  facet normal -9.659258e-001  0.000000e+000  2.588190e-001
    outer loop
      vertex -4.698463e+001  0.000000e+000  1.710101e+001
      vertex -4.698463e+001  1.000000e+001  1.710101e+001
      vertex -4.924039e+001  0.000000e+000  8.682409e+000
    endloop
  endfacet
  facet normal -9.659258e-001  0.000000e+000  2.588190e-001
    outer loop
      vertex -4.924039e+001  0.000000e+000  8.682409e+000
      vertex -4.698463e+001  1.000000e+001  1.710101e+001
      vertex -4.924039e+001  1.000000e+001  8.682409e+000
    endloop
  endfacet
  facet normal -9.961947e-001  0.000000e+000  8.715581e-002
    outer loop
      vertex -4.924039e+001  0.000000e+000  8.682409e+000
      vertex -4.924039e+001  1.000000e+001  8.682409e+000
      vertex -5.000000e+001  0.000000e+000  0.000000e+000
    endloop
  endfacet
  facet normal -9.961947e-001  0.000000e+000  8.715581e-002
    outer loop
      vertex -5.000000e+001  0.000000e+000  0.000000e+000
      vertex -4.924039e+001  1.000000e+001  8.682409e+000
      vertex -5.000000e+001  1.000000e+001  0.000000e+000
    endloop
  endfacet
endsolid CATIA STL
